<?xml version="1.0" encoding="UTF-8"?>
<svg width="960" height="600" viewBox="0 0 960 600" xmlns="http://www.w3.org/2000/svg"
     font-family="Noto Sans, Segoe UI, Cantarell, sans-serif">
  <!-- Faithful mockup of the yaawp sign-in screen (Breeze Dark). Scan the QR
       code from WhatsApp > Linked Devices to pair, the same as the real app. -->
  <defs>
    <clipPath id="winl"><rect width="960" height="600" rx="10"/></clipPath>
  </defs>

  <g clip-path="url(#winl)">
    <rect width="960" height="600" fill="#202326"/>

    <!-- Title bar -->
    <rect width="960" height="34" fill="#292c30"/>
    <line x1="0" y1="34" x2="960" y2="34" stroke="#16181a" stroke-width="1"/>
    <g transform="translate(12,7)">
      <rect width="20" height="20" rx="5" fill="#1ea362"/>
      <rect x="4.6" y="4.2" width="10.8" height="7.6" rx="2.6" fill="#ffffff"/>
      <path d="M7 11 L5.7 15 L10 11.4 Z" fill="#ffffff"/>
      <circle cx="7.4" cy="8" r="1" fill="#1ea362"/>
      <circle cx="10" cy="8" r="1" fill="#1ea362"/>
      <circle cx="12.6" cy="8" r="1" fill="#1ea362"/>
    </g>
    <text x="480" y="22" font-size="13" fill="#fcfcfc" text-anchor="middle">yaawp</text>
    <g stroke="#c6cacf" stroke-width="1.3" fill="none">
      <path d="M886 15 l6 5 l6 -5"/>
      <path d="M912 20 l6 -5 l6 5"/>
      <path d="M938 14 l10 10 M948 14 l-10 10"/>
    </g>

    <!-- page header -->
    <text x="16" y="60" font-size="15" font-weight="700" fill="#fcfcfc">Sign in</text>
    <line x1="0" y1="74" x2="960" y2="74" stroke="#16181a" stroke-width="1"/>

    <!-- heading -->
    <text x="480" y="164" font-size="21" font-weight="700" fill="#fcfcfc" text-anchor="middle">Link this device</text>

    <!-- instructions -->
    <text x="480" y="194" font-size="13.5" fill="#c9ced3" text-anchor="middle">Open WhatsApp on your phone, go to Linked</text>
    <text x="480" y="214" font-size="13.5" fill="#c9ced3" text-anchor="middle">Devices, and scan the code below.</text>

    <!-- QR container -->
    <rect x="360" y="236" width="240" height="240" rx="6" fill="#ffffff"/>
    <g transform="translate(376,252) scale(6.303)" fill="#000000">
      <rect x="0" y="0" width="1" height="1"/>
      <rect x="1" y="0" width="1" height="1"/>
      <rect x="2" y="0" width="1" height="1"/>
      <rect x="3" y="0" width="1" height="1"/>
      <rect x="4" y="0" width="1" height="1"/>
      <rect x="5" y="0" width="1" height="1"/>
      <rect x="6" y="0" width="1" height="1"/>
      <rect x="9" y="0" width="1" height="1"/>
      <rect x="14" y="0" width="1" height="1"/>
      <rect x="16" y="0" width="1" height="1"/>
      <rect x="18" y="0" width="1" height="1"/>
      <rect x="19" y="0" width="1" height="1"/>
      <rect x="20" y="0" width="1" height="1"/>
      <rect x="21" y="0" width="1" height="1"/>
      <rect x="23" y="0" width="1" height="1"/>
      <rect x="26" y="0" width="1" height="1"/>
      <rect x="27" y="0" width="1" height="1"/>
      <rect x="28" y="0" width="1" height="1"/>
      <rect x="29" y="0" width="1" height="1"/>
      <rect x="30" y="0" width="1" height="1"/>
      <rect x="31" y="0" width="1" height="1"/>
      <rect x="32" y="0" width="1" height="1"/>
      <rect x="0" y="1" width="1" height="1"/>
      <rect x="6" y="1" width="1" height="1"/>
      <rect x="8" y="1" width="1" height="1"/>
      <rect x="9" y="1" width="1" height="1"/>
      <rect x="11" y="1" width="1" height="1"/>
      <rect x="12" y="1" width="1" height="1"/>
      <rect x="14" y="1" width="1" height="1"/>
      <rect x="15" y="1" width="1" height="1"/>
      <rect x="16" y="1" width="1" height="1"/>
      <rect x="17" y="1" width="1" height="1"/>
      <rect x="18" y="1" width="1" height="1"/>
      <rect x="20" y="1" width="1" height="1"/>
      <rect x="21" y="1" width="1" height="1"/>
      <rect x="22" y="1" width="1" height="1"/>
      <rect x="24" y="1" width="1" height="1"/>
      <rect x="26" y="1" width="1" height="1"/>
      <rect x="32" y="1" width="1" height="1"/>
      <rect x="0" y="2" width="1" height="1"/>
      <rect x="2" y="2" width="1" height="1"/>
      <rect x="3" y="2" width="1" height="1"/>
      <rect x="4" y="2" width="1" height="1"/>
      <rect x="6" y="2" width="1" height="1"/>
      <rect x="9" y="2" width="1" height="1"/>
      <rect x="10" y="2" width="1" height="1"/>
      <rect x="11" y="2" width="1" height="1"/>
      <rect x="15" y="2" width="1" height="1"/>
      <rect x="21" y="2" width="1" height="1"/>
      <rect x="26" y="2" width="1" height="1"/>
      <rect x="28" y="2" width="1" height="1"/>
      <rect x="29" y="2" width="1" height="1"/>
      <rect x="30" y="2" width="1" height="1"/>
      <rect x="32" y="2" width="1" height="1"/>
      <rect x="0" y="3" width="1" height="1"/>
      <rect x="2" y="3" width="1" height="1"/>
      <rect x="3" y="3" width="1" height="1"/>
      <rect x="4" y="3" width="1" height="1"/>
      <rect x="6" y="3" width="1" height="1"/>
      <rect x="8" y="3" width="1" height="1"/>
      <rect x="9" y="3" width="1" height="1"/>
      <rect x="11" y="3" width="1" height="1"/>
      <rect x="13" y="3" width="1" height="1"/>
      <rect x="14" y="3" width="1" height="1"/>
      <rect x="15" y="3" width="1" height="1"/>
      <rect x="17" y="3" width="1" height="1"/>
      <rect x="19" y="3" width="1" height="1"/>
      <rect x="22" y="3" width="1" height="1"/>
      <rect x="23" y="3" width="1" height="1"/>
      <rect x="24" y="3" width="1" height="1"/>
      <rect x="26" y="3" width="1" height="1"/>
      <rect x="28" y="3" width="1" height="1"/>
      <rect x="29" y="3" width="1" height="1"/>
      <rect x="30" y="3" width="1" height="1"/>
      <rect x="32" y="3" width="1" height="1"/>
      <rect x="0" y="4" width="1" height="1"/>
      <rect x="2" y="4" width="1" height="1"/>
      <rect x="3" y="4" width="1" height="1"/>
      <rect x="4" y="4" width="1" height="1"/>
      <rect x="6" y="4" width="1" height="1"/>
      <rect x="10" y="4" width="1" height="1"/>
      <rect x="12" y="4" width="1" height="1"/>
      <rect x="14" y="4" width="1" height="1"/>
      <rect x="16" y="4" width="1" height="1"/>
      <rect x="18" y="4" width="1" height="1"/>
      <rect x="19" y="4" width="1" height="1"/>
      <rect x="20" y="4" width="1" height="1"/>
      <rect x="21" y="4" width="1" height="1"/>
      <rect x="23" y="4" width="1" height="1"/>
      <rect x="24" y="4" width="1" height="1"/>
      <rect x="26" y="4" width="1" height="1"/>
      <rect x="28" y="4" width="1" height="1"/>
      <rect x="29" y="4" width="1" height="1"/>
      <rect x="30" y="4" width="1" height="1"/>
      <rect x="32" y="4" width="1" height="1"/>
      <rect x="0" y="5" width="1" height="1"/>
      <rect x="6" y="5" width="1" height="1"/>
      <rect x="8" y="5" width="1" height="1"/>
      <rect x="10" y="5" width="1" height="1"/>
      <rect x="13" y="5" width="1" height="1"/>
      <rect x="15" y="5" width="1" height="1"/>
      <rect x="21" y="5" width="1" height="1"/>
      <rect x="22" y="5" width="1" height="1"/>
      <rect x="26" y="5" width="1" height="1"/>
      <rect x="32" y="5" width="1" height="1"/>
      <rect x="0" y="6" width="1" height="1"/>
      <rect x="1" y="6" width="1" height="1"/>
      <rect x="2" y="6" width="1" height="1"/>
      <rect x="3" y="6" width="1" height="1"/>
      <rect x="4" y="6" width="1" height="1"/>
      <rect x="5" y="6" width="1" height="1"/>
      <rect x="6" y="6" width="1" height="1"/>
      <rect x="8" y="6" width="1" height="1"/>
      <rect x="10" y="6" width="1" height="1"/>
      <rect x="12" y="6" width="1" height="1"/>
      <rect x="14" y="6" width="1" height="1"/>
      <rect x="16" y="6" width="1" height="1"/>
      <rect x="18" y="6" width="1" height="1"/>
      <rect x="20" y="6" width="1" height="1"/>
      <rect x="22" y="6" width="1" height="1"/>
      <rect x="24" y="6" width="1" height="1"/>
      <rect x="26" y="6" width="1" height="1"/>
      <rect x="27" y="6" width="1" height="1"/>
      <rect x="28" y="6" width="1" height="1"/>
      <rect x="29" y="6" width="1" height="1"/>
      <rect x="30" y="6" width="1" height="1"/>
      <rect x="31" y="6" width="1" height="1"/>
      <rect x="32" y="6" width="1" height="1"/>
      <rect x="12" y="7" width="1" height="1"/>
      <rect x="14" y="7" width="1" height="1"/>
      <rect x="15" y="7" width="1" height="1"/>
      <rect x="19" y="7" width="1" height="1"/>
      <rect x="20" y="7" width="1" height="1"/>
      <rect x="21" y="7" width="1" height="1"/>
      <rect x="22" y="7" width="1" height="1"/>
      <rect x="0" y="8" width="1" height="1"/>
      <rect x="1" y="8" width="1" height="1"/>
      <rect x="2" y="8" width="1" height="1"/>
      <rect x="3" y="8" width="1" height="1"/>
      <rect x="4" y="8" width="1" height="1"/>
      <rect x="6" y="8" width="1" height="1"/>
      <rect x="7" y="8" width="1" height="1"/>
      <rect x="8" y="8" width="1" height="1"/>
      <rect x="9" y="8" width="1" height="1"/>
      <rect x="10" y="8" width="1" height="1"/>
      <rect x="12" y="8" width="1" height="1"/>
      <rect x="13" y="8" width="1" height="1"/>
      <rect x="14" y="8" width="1" height="1"/>
      <rect x="17" y="8" width="1" height="1"/>
      <rect x="18" y="8" width="1" height="1"/>
      <rect x="20" y="8" width="1" height="1"/>
      <rect x="22" y="8" width="1" height="1"/>
      <rect x="23" y="8" width="1" height="1"/>
      <rect x="25" y="8" width="1" height="1"/>
      <rect x="27" y="8" width="1" height="1"/>
      <rect x="29" y="8" width="1" height="1"/>
      <rect x="31" y="8" width="1" height="1"/>
      <rect x="1" y="9" width="1" height="1"/>
      <rect x="2" y="9" width="1" height="1"/>
      <rect x="9" y="9" width="1" height="1"/>
      <rect x="16" y="9" width="1" height="1"/>
      <rect x="17" y="9" width="1" height="1"/>
      <rect x="18" y="9" width="1" height="1"/>
      <rect x="19" y="9" width="1" height="1"/>
      <rect x="20" y="9" width="1" height="1"/>
      <rect x="23" y="9" width="1" height="1"/>
      <rect x="24" y="9" width="1" height="1"/>
      <rect x="26" y="9" width="1" height="1"/>
      <rect x="27" y="9" width="1" height="1"/>
      <rect x="30" y="9" width="1" height="1"/>
      <rect x="32" y="9" width="1" height="1"/>
      <rect x="0" y="10" width="1" height="1"/>
      <rect x="2" y="10" width="1" height="1"/>
      <rect x="5" y="10" width="1" height="1"/>
      <rect x="6" y="10" width="1" height="1"/>
      <rect x="9" y="10" width="1" height="1"/>
      <rect x="11" y="10" width="1" height="1"/>
      <rect x="12" y="10" width="1" height="1"/>
      <rect x="15" y="10" width="1" height="1"/>
      <rect x="16" y="10" width="1" height="1"/>
      <rect x="20" y="10" width="1" height="1"/>
      <rect x="21" y="10" width="1" height="1"/>
      <rect x="22" y="10" width="1" height="1"/>
      <rect x="25" y="10" width="1" height="1"/>
      <rect x="26" y="10" width="1" height="1"/>
      <rect x="27" y="10" width="1" height="1"/>
      <rect x="28" y="10" width="1" height="1"/>
      <rect x="29" y="10" width="1" height="1"/>
      <rect x="30" y="10" width="1" height="1"/>
      <rect x="31" y="10" width="1" height="1"/>
      <rect x="2" y="11" width="1" height="1"/>
      <rect x="3" y="11" width="1" height="1"/>
      <rect x="7" y="11" width="1" height="1"/>
      <rect x="8" y="11" width="1" height="1"/>
      <rect x="9" y="11" width="1" height="1"/>
      <rect x="10" y="11" width="1" height="1"/>
      <rect x="11" y="11" width="1" height="1"/>
      <rect x="14" y="11" width="1" height="1"/>
      <rect x="16" y="11" width="1" height="1"/>
      <rect x="18" y="11" width="1" height="1"/>
      <rect x="20" y="11" width="1" height="1"/>
      <rect x="21" y="11" width="1" height="1"/>
      <rect x="22" y="11" width="1" height="1"/>
      <rect x="27" y="11" width="1" height="1"/>
      <rect x="29" y="11" width="1" height="1"/>
      <rect x="30" y="11" width="1" height="1"/>
      <rect x="31" y="11" width="1" height="1"/>
      <rect x="1" y="12" width="1" height="1"/>
      <rect x="2" y="12" width="1" height="1"/>
      <rect x="4" y="12" width="1" height="1"/>
      <rect x="6" y="12" width="1" height="1"/>
      <rect x="8" y="12" width="1" height="1"/>
      <rect x="9" y="12" width="1" height="1"/>
      <rect x="11" y="12" width="1" height="1"/>
      <rect x="13" y="12" width="1" height="1"/>
      <rect x="14" y="12" width="1" height="1"/>
      <rect x="15" y="12" width="1" height="1"/>
      <rect x="16" y="12" width="1" height="1"/>
      <rect x="17" y="12" width="1" height="1"/>
      <rect x="22" y="12" width="1" height="1"/>
      <rect x="23" y="12" width="1" height="1"/>
      <rect x="25" y="12" width="1" height="1"/>
      <rect x="28" y="12" width="1" height="1"/>
      <rect x="29" y="12" width="1" height="1"/>
      <rect x="0" y="13" width="1" height="1"/>
      <rect x="2" y="13" width="1" height="1"/>
      <rect x="4" y="13" width="1" height="1"/>
      <rect x="5" y="13" width="1" height="1"/>
      <rect x="7" y="13" width="1" height="1"/>
      <rect x="9" y="13" width="1" height="1"/>
      <rect x="10" y="13" width="1" height="1"/>
      <rect x="12" y="13" width="1" height="1"/>
      <rect x="14" y="13" width="1" height="1"/>
      <rect x="16" y="13" width="1" height="1"/>
      <rect x="19" y="13" width="1" height="1"/>
      <rect x="20" y="13" width="1" height="1"/>
      <rect x="23" y="13" width="1" height="1"/>
      <rect x="24" y="13" width="1" height="1"/>
      <rect x="29" y="13" width="1" height="1"/>
      <rect x="30" y="13" width="1" height="1"/>
      <rect x="32" y="13" width="1" height="1"/>
      <rect x="1" y="14" width="1" height="1"/>
      <rect x="2" y="14" width="1" height="1"/>
      <rect x="3" y="14" width="1" height="1"/>
      <rect x="6" y="14" width="1" height="1"/>
      <rect x="7" y="14" width="1" height="1"/>
      <rect x="8" y="14" width="1" height="1"/>
      <rect x="10" y="14" width="1" height="1"/>
      <rect x="15" y="14" width="1" height="1"/>
      <rect x="16" y="14" width="1" height="1"/>
      <rect x="17" y="14" width="1" height="1"/>
      <rect x="18" y="14" width="1" height="1"/>
      <rect x="22" y="14" width="1" height="1"/>
      <rect x="26" y="14" width="1" height="1"/>
      <rect x="27" y="14" width="1" height="1"/>
      <rect x="29" y="14" width="1" height="1"/>
      <rect x="31" y="14" width="1" height="1"/>
      <rect x="2" y="15" width="1" height="1"/>
      <rect x="4" y="15" width="1" height="1"/>
      <rect x="8" y="15" width="1" height="1"/>
      <rect x="9" y="15" width="1" height="1"/>
      <rect x="12" y="15" width="1" height="1"/>
      <rect x="15" y="15" width="1" height="1"/>
      <rect x="16" y="15" width="1" height="1"/>
      <rect x="20" y="15" width="1" height="1"/>
      <rect x="21" y="15" width="1" height="1"/>
      <rect x="22" y="15" width="1" height="1"/>
      <rect x="24" y="15" width="1" height="1"/>
      <rect x="25" y="15" width="1" height="1"/>
      <rect x="26" y="15" width="1" height="1"/>
      <rect x="29" y="15" width="1" height="1"/>
      <rect x="30" y="15" width="1" height="1"/>
      <rect x="31" y="15" width="1" height="1"/>
      <rect x="1" y="16" width="1" height="1"/>
      <rect x="6" y="16" width="1" height="1"/>
      <rect x="7" y="16" width="1" height="1"/>
      <rect x="8" y="16" width="1" height="1"/>
      <rect x="9" y="16" width="1" height="1"/>
      <rect x="12" y="16" width="1" height="1"/>
      <rect x="13" y="16" width="1" height="1"/>
      <rect x="14" y="16" width="1" height="1"/>
      <rect x="17" y="16" width="1" height="1"/>
      <rect x="25" y="16" width="1" height="1"/>
      <rect x="28" y="16" width="1" height="1"/>
      <rect x="29" y="16" width="1" height="1"/>
      <rect x="32" y="16" width="1" height="1"/>
      <rect x="3" y="17" width="1" height="1"/>
      <rect x="4" y="17" width="1" height="1"/>
      <rect x="5" y="17" width="1" height="1"/>
      <rect x="8" y="17" width="1" height="1"/>
      <rect x="9" y="17" width="1" height="1"/>
      <rect x="10" y="17" width="1" height="1"/>
      <rect x="14" y="17" width="1" height="1"/>
      <rect x="18" y="17" width="1" height="1"/>
      <rect x="19" y="17" width="1" height="1"/>
      <rect x="20" y="17" width="1" height="1"/>
      <rect x="25" y="17" width="1" height="1"/>
      <rect x="26" y="17" width="1" height="1"/>
      <rect x="30" y="17" width="1" height="1"/>
      <rect x="31" y="17" width="1" height="1"/>
      <rect x="32" y="17" width="1" height="1"/>
      <rect x="0" y="18" width="1" height="1"/>
      <rect x="1" y="18" width="1" height="1"/>
      <rect x="3" y="18" width="1" height="1"/>
      <rect x="6" y="18" width="1" height="1"/>
      <rect x="7" y="18" width="1" height="1"/>
      <rect x="8" y="18" width="1" height="1"/>
      <rect x="10" y="18" width="1" height="1"/>
      <rect x="11" y="18" width="1" height="1"/>
      <rect x="12" y="18" width="1" height="1"/>
      <rect x="15" y="18" width="1" height="1"/>
      <rect x="17" y="18" width="1" height="1"/>
      <rect x="18" y="18" width="1" height="1"/>
      <rect x="20" y="18" width="1" height="1"/>
      <rect x="21" y="18" width="1" height="1"/>
      <rect x="22" y="18" width="1" height="1"/>
      <rect x="24" y="18" width="1" height="1"/>
      <rect x="25" y="18" width="1" height="1"/>
      <rect x="27" y="18" width="1" height="1"/>
      <rect x="28" y="18" width="1" height="1"/>
      <rect x="30" y="18" width="1" height="1"/>
      <rect x="31" y="18" width="1" height="1"/>
      <rect x="0" y="19" width="1" height="1"/>
      <rect x="2" y="19" width="1" height="1"/>
      <rect x="3" y="19" width="1" height="1"/>
      <rect x="5" y="19" width="1" height="1"/>
      <rect x="7" y="19" width="1" height="1"/>
      <rect x="8" y="19" width="1" height="1"/>
      <rect x="11" y="19" width="1" height="1"/>
      <rect x="15" y="19" width="1" height="1"/>
      <rect x="20" y="19" width="1" height="1"/>
      <rect x="21" y="19" width="1" height="1"/>
      <rect x="22" y="19" width="1" height="1"/>
      <rect x="24" y="19" width="1" height="1"/>
      <rect x="26" y="19" width="1" height="1"/>
      <rect x="28" y="19" width="1" height="1"/>
      <rect x="30" y="19" width="1" height="1"/>
      <rect x="2" y="20" width="1" height="1"/>
      <rect x="3" y="20" width="1" height="1"/>
      <rect x="6" y="20" width="1" height="1"/>
      <rect x="8" y="20" width="1" height="1"/>
      <rect x="9" y="20" width="1" height="1"/>
      <rect x="10" y="20" width="1" height="1"/>
      <rect x="11" y="20" width="1" height="1"/>
      <rect x="17" y="20" width="1" height="1"/>
      <rect x="19" y="20" width="1" height="1"/>
      <rect x="22" y="20" width="1" height="1"/>
      <rect x="27" y="20" width="1" height="1"/>
      <rect x="28" y="20" width="1" height="1"/>
      <rect x="0" y="21" width="1" height="1"/>
      <rect x="3" y="21" width="1" height="1"/>
      <rect x="8" y="21" width="1" height="1"/>
      <rect x="9" y="21" width="1" height="1"/>
      <rect x="12" y="21" width="1" height="1"/>
      <rect x="13" y="21" width="1" height="1"/>
      <rect x="16" y="21" width="1" height="1"/>
      <rect x="18" y="21" width="1" height="1"/>
      <rect x="19" y="21" width="1" height="1"/>
      <rect x="23" y="21" width="1" height="1"/>
      <rect x="25" y="21" width="1" height="1"/>
      <rect x="26" y="21" width="1" height="1"/>
      <rect x="27" y="21" width="1" height="1"/>
      <rect x="29" y="21" width="1" height="1"/>
      <rect x="0" y="22" width="1" height="1"/>
      <rect x="2" y="22" width="1" height="1"/>
      <rect x="3" y="22" width="1" height="1"/>
      <rect x="4" y="22" width="1" height="1"/>
      <rect x="5" y="22" width="1" height="1"/>
      <rect x="6" y="22" width="1" height="1"/>
      <rect x="7" y="22" width="1" height="1"/>
      <rect x="8" y="22" width="1" height="1"/>
      <rect x="9" y="22" width="1" height="1"/>
      <rect x="10" y="22" width="1" height="1"/>
      <rect x="13" y="22" width="1" height="1"/>
      <rect x="14" y="22" width="1" height="1"/>
      <rect x="15" y="22" width="1" height="1"/>
      <rect x="18" y="22" width="1" height="1"/>
      <rect x="21" y="22" width="1" height="1"/>
      <rect x="22" y="22" width="1" height="1"/>
      <rect x="26" y="22" width="1" height="1"/>
      <rect x="31" y="22" width="1" height="1"/>
      <rect x="0" y="23" width="1" height="1"/>
      <rect x="2" y="23" width="1" height="1"/>
      <rect x="4" y="23" width="1" height="1"/>
      <rect x="8" y="23" width="1" height="1"/>
      <rect x="10" y="23" width="1" height="1"/>
      <rect x="12" y="23" width="1" height="1"/>
      <rect x="13" y="23" width="1" height="1"/>
      <rect x="15" y="23" width="1" height="1"/>
      <rect x="16" y="23" width="1" height="1"/>
      <rect x="20" y="23" width="1" height="1"/>
      <rect x="21" y="23" width="1" height="1"/>
      <rect x="23" y="23" width="1" height="1"/>
      <rect x="24" y="23" width="1" height="1"/>
      <rect x="27" y="23" width="1" height="1"/>
      <rect x="28" y="23" width="1" height="1"/>
      <rect x="29" y="23" width="1" height="1"/>
      <rect x="30" y="23" width="1" height="1"/>
      <rect x="32" y="23" width="1" height="1"/>
      <rect x="0" y="24" width="1" height="1"/>
      <rect x="2" y="24" width="1" height="1"/>
      <rect x="3" y="24" width="1" height="1"/>
      <rect x="6" y="24" width="1" height="1"/>
      <rect x="9" y="24" width="1" height="1"/>
      <rect x="12" y="24" width="1" height="1"/>
      <rect x="14" y="24" width="1" height="1"/>
      <rect x="15" y="24" width="1" height="1"/>
      <rect x="16" y="24" width="1" height="1"/>
      <rect x="17" y="24" width="1" height="1"/>
      <rect x="22" y="24" width="1" height="1"/>
      <rect x="24" y="24" width="1" height="1"/>
      <rect x="25" y="24" width="1" height="1"/>
      <rect x="26" y="24" width="1" height="1"/>
      <rect x="27" y="24" width="1" height="1"/>
      <rect x="28" y="24" width="1" height="1"/>
      <rect x="8" y="25" width="1" height="1"/>
      <rect x="9" y="25" width="1" height="1"/>
      <rect x="10" y="25" width="1" height="1"/>
      <rect x="16" y="25" width="1" height="1"/>
      <rect x="17" y="25" width="1" height="1"/>
      <rect x="18" y="25" width="1" height="1"/>
      <rect x="19" y="25" width="1" height="1"/>
      <rect x="20" y="25" width="1" height="1"/>
      <rect x="23" y="25" width="1" height="1"/>
      <rect x="24" y="25" width="1" height="1"/>
      <rect x="28" y="25" width="1" height="1"/>
      <rect x="30" y="25" width="1" height="1"/>
      <rect x="31" y="25" width="1" height="1"/>
      <rect x="32" y="25" width="1" height="1"/>
      <rect x="0" y="26" width="1" height="1"/>
      <rect x="1" y="26" width="1" height="1"/>
      <rect x="2" y="26" width="1" height="1"/>
      <rect x="3" y="26" width="1" height="1"/>
      <rect x="4" y="26" width="1" height="1"/>
      <rect x="5" y="26" width="1" height="1"/>
      <rect x="6" y="26" width="1" height="1"/>
      <rect x="8" y="26" width="1" height="1"/>
      <rect x="9" y="26" width="1" height="1"/>
      <rect x="10" y="26" width="1" height="1"/>
      <rect x="11" y="26" width="1" height="1"/>
      <rect x="12" y="26" width="1" height="1"/>
      <rect x="15" y="26" width="1" height="1"/>
      <rect x="16" y="26" width="1" height="1"/>
      <rect x="17" y="26" width="1" height="1"/>
      <rect x="20" y="26" width="1" height="1"/>
      <rect x="21" y="26" width="1" height="1"/>
      <rect x="23" y="26" width="1" height="1"/>
      <rect x="24" y="26" width="1" height="1"/>
      <rect x="26" y="26" width="1" height="1"/>
      <rect x="28" y="26" width="1" height="1"/>
      <rect x="29" y="26" width="1" height="1"/>
      <rect x="0" y="27" width="1" height="1"/>
      <rect x="6" y="27" width="1" height="1"/>
      <rect x="9" y="27" width="1" height="1"/>
      <rect x="10" y="27" width="1" height="1"/>
      <rect x="11" y="27" width="1" height="1"/>
      <rect x="14" y="27" width="1" height="1"/>
      <rect x="15" y="27" width="1" height="1"/>
      <rect x="18" y="27" width="1" height="1"/>
      <rect x="20" y="27" width="1" height="1"/>
      <rect x="21" y="27" width="1" height="1"/>
      <rect x="22" y="27" width="1" height="1"/>
      <rect x="24" y="27" width="1" height="1"/>
      <rect x="28" y="27" width="1" height="1"/>
      <rect x="29" y="27" width="1" height="1"/>
      <rect x="30" y="27" width="1" height="1"/>
      <rect x="0" y="28" width="1" height="1"/>
      <rect x="2" y="28" width="1" height="1"/>
      <rect x="3" y="28" width="1" height="1"/>
      <rect x="4" y="28" width="1" height="1"/>
      <rect x="6" y="28" width="1" height="1"/>
      <rect x="8" y="28" width="1" height="1"/>
      <rect x="11" y="28" width="1" height="1"/>
      <rect x="17" y="28" width="1" height="1"/>
      <rect x="18" y="28" width="1" height="1"/>
      <rect x="22" y="28" width="1" height="1"/>
      <rect x="24" y="28" width="1" height="1"/>
      <rect x="25" y="28" width="1" height="1"/>
      <rect x="26" y="28" width="1" height="1"/>
      <rect x="27" y="28" width="1" height="1"/>
      <rect x="28" y="28" width="1" height="1"/>
      <rect x="0" y="29" width="1" height="1"/>
      <rect x="2" y="29" width="1" height="1"/>
      <rect x="3" y="29" width="1" height="1"/>
      <rect x="4" y="29" width="1" height="1"/>
      <rect x="6" y="29" width="1" height="1"/>
      <rect x="8" y="29" width="1" height="1"/>
      <rect x="12" y="29" width="1" height="1"/>
      <rect x="13" y="29" width="1" height="1"/>
      <rect x="14" y="29" width="1" height="1"/>
      <rect x="16" y="29" width="1" height="1"/>
      <rect x="17" y="29" width="1" height="1"/>
      <rect x="18" y="29" width="1" height="1"/>
      <rect x="19" y="29" width="1" height="1"/>
      <rect x="20" y="29" width="1" height="1"/>
      <rect x="25" y="29" width="1" height="1"/>
      <rect x="27" y="29" width="1" height="1"/>
      <rect x="28" y="29" width="1" height="1"/>
      <rect x="29" y="29" width="1" height="1"/>
      <rect x="30" y="29" width="1" height="1"/>
      <rect x="0" y="30" width="1" height="1"/>
      <rect x="2" y="30" width="1" height="1"/>
      <rect x="3" y="30" width="1" height="1"/>
      <rect x="4" y="30" width="1" height="1"/>
      <rect x="6" y="30" width="1" height="1"/>
      <rect x="8" y="30" width="1" height="1"/>
      <rect x="10" y="30" width="1" height="1"/>
      <rect x="13" y="30" width="1" height="1"/>
      <rect x="14" y="30" width="1" height="1"/>
      <rect x="15" y="30" width="1" height="1"/>
      <rect x="16" y="30" width="1" height="1"/>
      <rect x="20" y="30" width="1" height="1"/>
      <rect x="22" y="30" width="1" height="1"/>
      <rect x="23" y="30" width="1" height="1"/>
      <rect x="25" y="30" width="1" height="1"/>
      <rect x="26" y="30" width="1" height="1"/>
      <rect x="29" y="30" width="1" height="1"/>
      <rect x="30" y="30" width="1" height="1"/>
      <rect x="31" y="30" width="1" height="1"/>
      <rect x="0" y="31" width="1" height="1"/>
      <rect x="6" y="31" width="1" height="1"/>
      <rect x="8" y="31" width="1" height="1"/>
      <rect x="10" y="31" width="1" height="1"/>
      <rect x="12" y="31" width="1" height="1"/>
      <rect x="13" y="31" width="1" height="1"/>
      <rect x="16" y="31" width="1" height="1"/>
      <rect x="19" y="31" width="1" height="1"/>
      <rect x="21" y="31" width="1" height="1"/>
      <rect x="24" y="31" width="1" height="1"/>
      <rect x="26" y="31" width="1" height="1"/>
      <rect x="27" y="31" width="1" height="1"/>
      <rect x="28" y="31" width="1" height="1"/>
      <rect x="29" y="31" width="1" height="1"/>
      <rect x="30" y="31" width="1" height="1"/>
      <rect x="0" y="32" width="1" height="1"/>
      <rect x="1" y="32" width="1" height="1"/>
      <rect x="2" y="32" width="1" height="1"/>
      <rect x="3" y="32" width="1" height="1"/>
      <rect x="4" y="32" width="1" height="1"/>
      <rect x="5" y="32" width="1" height="1"/>
      <rect x="6" y="32" width="1" height="1"/>
      <rect x="8" y="32" width="1" height="1"/>
      <rect x="9" y="32" width="1" height="1"/>
      <rect x="10" y="32" width="1" height="1"/>
      <rect x="12" y="32" width="1" height="1"/>
      <rect x="14" y="32" width="1" height="1"/>
      <rect x="15" y="32" width="1" height="1"/>
      <rect x="16" y="32" width="1" height="1"/>
      <rect x="17" y="32" width="1" height="1"/>
      <rect x="19" y="32" width="1" height="1"/>
      <rect x="22" y="32" width="1" height="1"/>
      <rect x="23" y="32" width="1" height="1"/>
      <rect x="24" y="32" width="1" height="1"/>
      <rect x="27" y="32" width="1" height="1"/>
      <rect x="31" y="32" width="1" height="1"/>
    </g>

    <!-- connection status -->
    <text x="480" y="514" font-size="13" fill="#a1a9b1" text-anchor="middle">Connection: connected</text>
  </g>

  <rect x="0.5" y="0.5" width="959" height="599" rx="10" fill="none" stroke="#4a4e53" stroke-width="1"/>
</svg>
